# Blender 4.4.3
# www.blender.org
mtllib Hexagono.mtl
o Círculo
v 0.000000 1.000000 0.000000
v -0.866025 0.500000 0.000000
v -0.866025 -0.500000 -0.000000
v 0.000000 -1.000000 -0.000000
v 0.866025 -0.500000 -0.000000
v 0.866025 0.500000 0.000000
v -0.866025 0.500000 -0.077236
v 0.000000 1.000000 -0.077236
v -0.866025 -0.500000 -0.077236
v 0.000000 -1.000000 -0.077236
v 0.866025 -0.500000 -0.077236
v 0.866025 0.500000 -0.077236
vn -0.0000 -0.0000 -1.0000
vn -0.0000 -0.0000 1.0000
vn -1.0000 -0.0000 -0.0000
vn 0.5000 0.8660 -0.0000
vn 0.5000 -0.8660 -0.0000
vn -0.5000 -0.8660 -0.0000
vn -0.5000 0.8660 -0.0000
vn 1.0000 -0.0000 -0.0000
vt 0.500000 1.000000
vt 0.933013 0.750000
vt 0.933013 0.250000
vt 0.500000 0.000000
vt 0.066987 0.250000
vt 0.066987 0.750000
s 0
f 1/1/1 6/2/1 5/3/1 4/4/1 3/5/1 2/6/1
f 8/1/2 7/6/2 9/5/2 10/4/2 11/3/2 12/2/2
f 5/3/3 6/2/3 12/2/3 11/3/3
f 3/5/4 4/4/4 10/4/4 9/5/4
f 1/1/5 2/6/5 7/6/5 8/1/5
f 6/2/6 1/1/6 8/1/6 12/2/6
f 4/4/7 5/3/7 11/3/7 10/4/7
f 2/6/8 3/5/8 9/5/8 7/6/8
